<svg id="svg16" xmlns="http://www.w3.org/2000/svg" width="24" height="24" viewBox="0 0 24 24">
  <title>openhab-icon</title>
  <ellipse cx="12.01" cy="12.09" rx="11.97" ry="11.9" style="fill: #fff"/>
  <g id="layer1">
    <path id="orange_arrow" data-name="orange arrow" d="M5.24,21.13l9.39-9.4L16,10.37l1.37,1.36,6.93,6.94v0l-.14.4-.15.4-.18.38-.19.38-.17.3L16,13.1,6.24,22.87a10.33,10.33,0,0,1-1-1.74Z" transform="translate(-4 -4)" style="fill: #e64a19"/>
    <path id="path14" d="M16,4A12,12,0,1,1,6.94,23.85l.42-.42.31-.31L8,22.81l.31-.31h0A10.07,10.07,0,1,0,5.92,16a10.4,10.4,0,0,0,.24,2.18l-.67.67-.89.89A11.9,11.9,0,0,1,4,16,12,12,0,0,1,16,4Z" transform="translate(-4 -4)" style="fill: #474747"/>
  </g>
</svg>
