<svg id="svg16" xmlns="http://www.w3.org/2000/svg" viewBox="0 0 38.78 24"><title>openhab-icon2</title><ellipse cx="12.01" cy="12.09" rx="11.97" ry="11.9" style="fill:#fff"/><g id="layer1"><path id="orange_arrow" data-name="orange arrow" d="M5.24,21.13l9.39-9.4L16,10.37l1.37,1.36,6.93,6.94v0l-.14.4-.15.4-.18.38-.19.38-.17.3L16,13.1,6.24,22.87a10.33,10.33,0,0,1-1-1.74Z" transform="translate(-4 -4)" style="fill:#e64a19"/><path id="path14" d="M16,4A12,12,0,1,1,6.94,23.85l.42-.42.31-.31L8,22.81l.31-.31h0A10.07,10.07,0,1,0,5.92,16a10.4,10.4,0,0,0,.24,2.18l-.67.67-.89.89A11.9,11.9,0,0,1,4,16,12,12,0,0,1,16,4Z" transform="translate(-4 -4)" style="fill:#474747"/></g><g id="layer2"><path id="rect338" d="M16.11,17.28H42.78V25H16.11a3.54,3.54,0,0,1-3.34-3.85A3.54,3.54,0,0,1,16.11,17.28Z" transform="translate(-4 -4)" style="fill:#fff"/><g id="text904"><path id="path1524" d="M15.62,19h1.24a2.51,2.51,0,0,1,1.23.25.87.87,0,0,1,.43.83,1,1,0,0,1-.22.64,1,1,0,0,1-.61.33v0a1.88,1.88,0,0,1,.49.16.86.86,0,0,1,.35.33,1,1,0,0,1,.13.55,1.09,1.09,0,0,1-.41.92,1.72,1.72,0,0,1-1.1.32H15.62Zm.55,1.86H17a1.17,1.17,0,0,0,.76-.18.64.64,0,0,0,.22-.53.55.55,0,0,0-.26-.52,1.57,1.57,0,0,0-.8-.16h-.72Zm0,.46v1.58h.88a1.12,1.12,0,0,0,.8-.23.81.81,0,0,0,.23-.59.69.69,0,0,0-.24-.55,1.27,1.27,0,0,0-.84-.21Z" transform="translate(-4 -4)"/><path id="path1526" d="M22,23.32H19.58V19H22v.49H20.13v1.36h1.78v.47H20.13v1.56H22Z" transform="translate(-4 -4)"/><path id="path1528" d="M24.36,23.32h-.55V19.45H22.45V19h3.26v.49H24.36Z" transform="translate(-4 -4)"/><path id="path1530" d="M28.68,23.32,28.15,22H26.43l-.52,1.35h-.56L27.05,19h.5l1.7,4.37ZM28,21.48l-.49-1.31L27.44,20l-.09-.26a1.29,1.29,0,0,0-.06-.22c0,.13-.06.25-.1.38a2.34,2.34,0,0,1-.09.28l-.49,1.31Z" transform="translate(-4 -4)"/></g></g></svg>